<svg width="313" height="73" viewBox="0 0 313 73" fill="none" xmlns="http://www.w3.org/2000/svg">
<path d="M14.5312 72.8125H0V0H14.5312V4.33594H4.29688V68.3984H14.5312V72.8125ZM65.5078 40.0781C65.5078 42.8646 65.0781 45.4297 64.2188 47.7734C63.3594 50.1172 62.1224 52.1354 60.5078 53.8281C58.9193 55.4948 56.9922 56.7969 54.7266 57.7344C52.4609 58.6719 49.9219 59.1406 47.1094 59.1406C45.1302 59.1406 43.2292 58.7891 41.4062 58.0859C39.6094 57.3828 37.9297 56.3411 36.3672 54.9609V58.2422H31.0156V7.26562H36.3672V25.1953C37.9297 23.8672 39.6094 22.8385 41.4062 22.1094C43.2292 21.3542 45.1302 20.9766 47.1094 20.9766C49.9219 20.9766 52.4609 21.4583 54.7266 22.4219C56.9922 23.3594 58.9193 24.6745 60.5078 26.3672C62.1224 28.0339 63.3594 30.0521 64.2188 32.4219C65.0781 34.7656 65.5078 37.3177 65.5078 40.0781ZM60.0781 40.0781C60.0781 37.9948 59.8047 36.0807 59.2578 34.3359C58.737 32.5651 57.9297 31.0286 56.8359 29.7266C55.7422 28.4245 54.375 27.3958 52.7344 26.6406C51.1198 25.8854 49.2448 25.5078 47.1094 25.5078C42.9948 25.5078 39.4141 27.1354 36.3672 30.3906V49.8438C37.9297 51.5365 39.5964 52.7474 41.3672 53.4766C43.1641 54.2057 45.0781 54.5703 47.1094 54.5703C49.2448 54.5703 51.1068 54.1927 52.6953 53.4375C54.3099 52.6823 55.6641 51.6536 56.7578 50.3516C57.8516 49.0495 58.6719 47.526 59.2188 45.7812C59.7917 44.0104 60.0781 42.1094 60.0781 40.0781ZM107.188 26.9531C105.26 25.9896 102.969 25.5078 100.312 25.5078C98.125 25.5078 96.1719 25.9766 94.4531 26.9141C92.7344 27.8516 91.276 29.0885 90.0781 30.625C88.8802 32.1354 87.9557 33.8802 87.3047 35.8594C86.6797 37.8125 86.3672 39.8307 86.3672 41.9141V53.6719H94.6094V58.2422H72.7734V53.6719H81.0156V26.4062H72.7734V21.8359H86.3672V30.9766C88.8151 24.3099 93.4635 20.9766 100.312 20.9766C102.161 20.9766 103.763 21.0938 105.117 21.3281C106.497 21.5625 107.773 21.9792 108.945 22.5781L107.188 26.9531ZM121.797 41.9141C122.188 45.7682 123.594 48.8411 126.016 51.1328C128.438 53.4245 131.589 54.5703 135.469 54.5703C138.203 54.5703 140.638 54.0104 142.773 52.8906C144.909 51.7708 146.51 50.3776 147.578 48.7109L151.328 51.2891C149.505 53.8411 147.331 55.7943 144.805 57.1484C142.279 58.4766 139.167 59.1406 135.469 59.1406C132.656 59.1406 130.078 58.6719 127.734 57.7344C125.391 56.7969 123.359 55.4948 121.641 53.8281C119.948 52.1354 118.633 50.1302 117.695 47.8125C116.758 45.4948 116.289 42.9167 116.289 40.0781C116.289 37.3177 116.706 34.7786 117.539 32.4609C118.398 30.1172 119.622 28.099 121.211 26.4062C122.826 24.6875 124.779 23.3594 127.07 22.4219C129.362 21.4583 131.927 20.9766 134.766 20.9766C137.865 20.9766 140.573 21.4974 142.891 22.5391C145.208 23.5807 147.135 25.026 148.672 26.875C150.234 28.6979 151.38 30.8854 152.109 33.4375C152.865 35.9896 153.242 38.8151 153.242 41.9141H121.797ZM147.578 37.3438C146.979 33.3594 145.534 30.3906 143.242 28.4375C140.951 26.4844 138.125 25.5078 134.766 25.5078C133.047 25.5078 131.458 25.7943 130 26.3672C128.542 26.9141 127.253 27.7083 126.133 28.75C125.013 29.7917 124.076 31.0547 123.32 32.5391C122.565 33.9974 122.083 35.599 121.875 37.3438H147.578ZM197.734 21.8359L181.953 58.2422H174.766L158.906 21.8359H165.312L178.359 53.75L191.328 21.8359H197.734ZM225.625 14.5703H218.359V7.26562H225.625V14.5703ZM232.891 58.2422H211.055V53.6719H219.297V26.4062H211.055V21.8359H224.688V53.6719H232.891V58.2422ZM284.805 40.1562C284.805 42.9948 284.349 45.5729 283.438 47.8906C282.552 50.2083 281.263 52.2005 279.57 53.8672C277.904 55.5078 275.898 56.7969 273.555 57.7344C271.211 58.6719 268.594 59.1406 265.703 59.1406C262.865 59.1406 260.273 58.6719 257.93 57.7344C255.586 56.7969 253.568 55.5078 251.875 53.8672C250.208 52.2005 248.919 50.2083 248.008 47.8906C247.122 45.5729 246.68 42.9948 246.68 40.1562C246.68 37.3958 247.122 34.8307 248.008 32.4609C248.919 30.0651 250.208 28.0339 251.875 26.3672C253.568 24.6745 255.586 23.3594 257.93 22.4219C260.273 21.4583 262.865 20.9766 265.703 20.9766C268.594 20.9766 271.211 21.4583 273.555 22.4219C275.898 23.3594 277.904 24.6745 279.57 26.3672C281.263 28.0339 282.552 30.0651 283.438 32.4609C284.349 34.8307 284.805 37.3958 284.805 40.1562ZM279.453 40.1562C279.453 38.0729 279.141 36.1589 278.516 34.4141C277.917 32.6432 277.018 31.0938 275.82 29.7656C274.622 28.4375 273.164 27.3958 271.445 26.6406C269.753 25.8854 267.839 25.5078 265.703 25.5078C263.568 25.5078 261.641 25.8854 259.922 26.6406C258.229 27.3958 256.797 28.4375 255.625 29.7656C254.453 31.0938 253.555 32.6432 252.93 34.4141C252.331 36.1589 252.031 38.0729 252.031 40.1562C252.031 42.2396 252.331 44.1667 252.93 45.9375C253.555 47.6823 254.453 49.1927 255.625 50.4688C256.797 51.7448 258.229 52.7474 259.922 53.4766C261.641 54.2057 263.568 54.5703 265.703 54.5703C267.839 54.5703 269.753 54.2057 271.445 53.4766C273.164 52.7474 274.622 51.7448 275.82 50.4688C277.018 49.1927 277.917 47.6823 278.516 45.9375C279.141 44.1667 279.453 42.2396 279.453 40.1562ZM312.969 72.8125H298.398V68.3984H308.672V4.33594H298.398V0H312.969V72.8125Z" fill="#020618"/>
</svg>
