<svg width="300" height="52" viewBox="0 0 300 52" fill="none" xmlns="http://www.w3.org/2000/svg">
<path d="M0 41.1328C0 38.8411 0.572917 36.9271 1.71875 35.3906C2.86458 33.8281 4.36198 32.6042 6.21094 31.7188C8.08594 30.8073 10.2214 30.1562 12.6172 29.7656C15.0391 29.349 17.5 29.1406 20 29.1406C20.9635 29.1406 21.8229 29.1536 22.5781 29.1797C23.3594 29.2057 24.0885 29.2448 24.7656 29.2969C25.4688 29.349 26.1719 29.4141 26.875 29.4922C27.5781 29.5703 28.3464 29.6615 29.1797 29.7656V27.1484C29.1797 25.3776 28.7891 23.9193 28.0078 22.7734C27.2526 21.6276 26.3151 20.7292 25.1953 20.0781C24.0755 19.401 22.9036 18.9323 21.6797 18.6719C20.4557 18.3854 19.4141 18.2422 18.5547 18.2422C15.8464 18.2422 13.3464 18.6068 11.0547 19.3359C8.76302 20.0651 6.6276 21.0417 4.64844 22.2656L2.22656 18.2422C4.41406 16.9141 6.86198 15.8333 9.57031 15C12.3047 14.1406 15.2995 13.7109 18.5547 13.7109C20.5339 13.7109 22.474 13.9714 24.375 14.4922C26.3021 14.987 28.0208 15.7682 29.5312 16.8359C31.0677 17.8776 32.2917 19.2578 33.2031 20.9766C34.1146 22.6953 34.5703 24.7526 34.5703 27.1484V50.9766H29.1797V44.8828C28.2422 46.0547 27.1745 47.0833 25.9766 47.9688C24.8047 48.8542 23.5677 49.5833 22.2656 50.1562C20.9635 50.7031 19.6615 51.1198 18.3594 51.4062C17.0573 51.7188 15.8203 51.875 14.6484 51.875C9.83073 51.875 6.1849 50.9505 3.71094 49.1016C1.23698 47.2526 0 44.5964 0 41.1328ZM14.6484 47.3047C16.888 47.3047 18.8932 46.9792 20.6641 46.3281C22.4609 45.651 23.9844 44.8177 25.2344 43.8281C26.4844 42.8385 27.4479 41.7839 28.125 40.6641C28.8281 39.5443 29.1797 38.5286 29.1797 37.6172V34.1797C27.4349 33.9193 25.7552 33.776 24.1406 33.75C22.5521 33.724 21.1719 33.7109 20 33.7109C18.0729 33.7109 16.2109 33.8411 14.4141 34.1016C12.6432 34.362 11.0938 34.7917 9.76562 35.3906C8.4375 35.9635 7.36979 36.7188 6.5625 37.6562C5.75521 38.5938 5.35156 39.7526 5.35156 41.1328C5.35156 42.6693 6.09375 44.0885 7.57812 45.3906C9.08854 46.6667 11.4453 47.3047 14.6484 47.3047ZM81.3672 14.5703L65.5859 50.9766H58.3984L42.5391 14.5703H48.9453L61.9922 46.4844L74.9609 14.5703H81.3672ZM124.766 32.8906C124.766 35.7292 124.31 38.3073 123.398 40.625C122.513 42.9427 121.224 44.9349 119.531 46.6016C117.865 48.2422 115.859 49.5312 113.516 50.4688C111.172 51.4062 108.555 51.875 105.664 51.875C102.826 51.875 100.234 51.4062 97.8906 50.4688C95.5469 49.5312 93.5286 48.2422 91.8359 46.6016C90.1693 44.9349 88.8802 42.9427 87.9688 40.625C87.0833 38.3073 86.6406 35.7292 86.6406 32.8906C86.6406 30.1302 87.0833 27.5651 87.9688 25.1953C88.8802 22.7995 90.1693 20.7682 91.8359 19.1016C93.5286 17.4089 95.5469 16.0938 97.8906 15.1562C100.234 14.1927 102.826 13.7109 105.664 13.7109C108.555 13.7109 111.172 14.1927 113.516 15.1562C115.859 16.0938 117.865 17.4089 119.531 19.1016C121.224 20.7682 122.513 22.7995 123.398 25.1953C124.31 27.5651 124.766 30.1302 124.766 32.8906ZM119.414 32.8906C119.414 30.8073 119.102 28.8932 118.477 27.1484C117.878 25.3776 116.979 23.8281 115.781 22.5C114.583 21.1719 113.125 20.1302 111.406 19.375C109.714 18.6198 107.799 18.2422 105.664 18.2422C103.529 18.2422 101.602 18.6198 99.8828 19.375C98.1901 20.1302 96.7578 21.1719 95.5859 22.5C94.4141 23.8281 93.5156 25.3776 92.8906 27.1484C92.2917 28.8932 91.9922 30.8073 91.9922 32.8906C91.9922 34.974 92.2917 36.901 92.8906 38.6719C93.5156 40.4167 94.4141 41.9271 95.5859 43.2031C96.7578 44.4792 98.1901 45.4818 99.8828 46.2109C101.602 46.9401 103.529 47.3047 105.664 47.3047C107.799 47.3047 109.714 46.9401 111.406 46.2109C113.125 45.4818 114.583 44.4792 115.781 43.2031C116.979 41.9271 117.878 40.4167 118.477 38.6719C119.102 36.901 119.414 34.974 119.414 32.8906ZM166.133 44.0234C164.596 46.4193 162.487 48.3333 159.805 49.7656C157.148 51.1719 153.984 51.875 150.312 51.875C147.474 51.875 144.87 51.4062 142.5 50.4688C140.13 49.5312 138.099 48.2292 136.406 46.5625C134.74 44.8698 133.438 42.8646 132.5 40.5469C131.562 38.2292 131.094 35.651 131.094 32.8125C131.094 30.0521 131.523 27.5 132.383 25.1562C133.242 22.7865 134.466 20.7682 136.055 19.1016C137.643 17.4089 139.583 16.0938 141.875 15.1562C144.193 14.1927 146.758 13.7109 149.57 13.7109C150.69 13.7109 151.836 13.8411 153.008 14.1016C154.18 14.362 155.286 14.7656 156.328 15.3125C157.37 15.8333 158.307 16.4714 159.141 17.2266C159.974 17.9557 160.599 18.8281 161.016 19.8438V14.5703H165.82V29.1406H161.016C161.016 27.526 160.716 26.0547 160.117 24.7266C159.544 23.3984 158.75 22.2526 157.734 21.2891C156.719 20.3255 155.508 19.5833 154.102 19.0625C152.695 18.5156 151.185 18.2422 149.57 18.2422C147.383 18.2422 145.469 18.6198 143.828 19.375C142.214 20.1302 140.859 21.1589 139.766 22.4609C138.672 23.763 137.839 25.2995 137.266 27.0703C136.719 28.8151 136.445 30.7292 136.445 32.8125C136.445 34.8958 136.758 36.8229 137.383 38.5938C138.034 40.3385 138.958 41.849 140.156 43.125C141.38 44.401 142.839 45.4167 144.531 46.1719C146.25 46.9271 148.177 47.3047 150.312 47.3047C153.021 47.3047 155.43 46.7708 157.539 45.7031C159.648 44.6354 161.263 43.2161 162.383 41.4453L166.133 44.0234ZM174.688 41.1328C174.688 38.8411 175.26 36.9271 176.406 35.3906C177.552 33.8281 179.049 32.6042 180.898 31.7188C182.773 30.8073 184.909 30.1562 187.305 29.7656C189.727 29.349 192.188 29.1406 194.688 29.1406C195.651 29.1406 196.51 29.1536 197.266 29.1797C198.047 29.2057 198.776 29.2448 199.453 29.2969C200.156 29.349 200.859 29.4141 201.562 29.4922C202.266 29.5703 203.034 29.6615 203.867 29.7656V27.1484C203.867 25.3776 203.477 23.9193 202.695 22.7734C201.94 21.6276 201.003 20.7292 199.883 20.0781C198.763 19.401 197.591 18.9323 196.367 18.6719C195.143 18.3854 194.102 18.2422 193.242 18.2422C190.534 18.2422 188.034 18.6068 185.742 19.3359C183.451 20.0651 181.315 21.0417 179.336 22.2656L176.914 18.2422C179.102 16.9141 181.549 15.8333 184.258 15C186.992 14.1406 189.987 13.7109 193.242 13.7109C195.221 13.7109 197.161 13.9714 199.062 14.4922C200.99 14.987 202.708 15.7682 204.219 16.8359C205.755 17.8776 206.979 19.2578 207.891 20.9766C208.802 22.6953 209.258 24.7526 209.258 27.1484V50.9766H203.867V44.8828C202.93 46.0547 201.862 47.0833 200.664 47.9688C199.492 48.8542 198.255 49.5833 196.953 50.1562C195.651 50.7031 194.349 51.1198 193.047 51.4062C191.745 51.7188 190.508 51.875 189.336 51.875C184.518 51.875 180.872 50.9505 178.398 49.1016C175.924 47.2526 174.688 44.5964 174.688 41.1328ZM189.336 47.3047C191.576 47.3047 193.581 46.9792 195.352 46.3281C197.148 45.651 198.672 44.8177 199.922 43.8281C201.172 42.8385 202.135 41.7839 202.812 40.6641C203.516 39.5443 203.867 38.5286 203.867 37.6172V34.1797C202.122 33.9193 200.443 33.776 198.828 33.75C197.24 33.724 195.859 33.7109 194.688 33.7109C192.76 33.7109 190.898 33.8411 189.102 34.1016C187.331 34.362 185.781 34.7917 184.453 35.3906C183.125 35.9635 182.057 36.7188 181.25 37.6562C180.443 38.5938 180.039 39.7526 180.039 41.1328C180.039 42.6693 180.781 44.0885 182.266 45.3906C183.776 46.6667 186.133 47.3047 189.336 47.3047ZM252.93 50.9766H247.539V47.6172C246.003 48.9974 244.31 50.0521 242.461 50.7812C240.638 51.5104 238.763 51.875 236.836 51.875C233.945 51.875 231.354 51.4062 229.062 50.4688C226.771 49.5312 224.831 48.2292 223.242 46.5625C221.68 44.8698 220.469 42.8516 219.609 40.5078C218.776 38.1641 218.359 35.599 218.359 32.8125C218.359 30.0521 218.776 27.5 219.609 25.1562C220.469 22.7865 221.68 20.7682 223.242 19.1016C224.831 17.4089 226.771 16.0938 229.062 15.1562C231.354 14.1927 233.945 13.7109 236.836 13.7109C238.763 13.7109 240.638 14.0625 242.461 14.7656C244.31 15.4427 246.003 16.4714 247.539 17.8516V4.57031H240.273V0H252.93V50.9766ZM247.539 23.0469C246.003 21.3542 244.323 20.1302 242.5 19.375C240.703 18.6198 238.789 18.2422 236.758 18.2422C234.622 18.2422 232.734 18.6198 231.094 19.375C229.479 20.1302 228.125 21.1589 227.031 22.4609C225.938 23.763 225.104 25.2995 224.531 27.0703C223.984 28.8151 223.711 30.7292 223.711 32.8125C223.711 34.8958 223.984 36.8229 224.531 38.5938C225.104 40.3385 225.938 41.862 227.031 43.1641C228.125 44.4661 229.479 45.4948 231.094 46.25C232.734 47.0052 234.622 47.3828 236.758 47.3828C240.872 47.3828 244.466 45.7552 247.539 42.5V23.0469ZM299.453 32.8906C299.453 35.7292 298.997 38.3073 298.086 40.625C297.201 42.9427 295.911 44.9349 294.219 46.6016C292.552 48.2422 290.547 49.5312 288.203 50.4688C285.859 51.4062 283.242 51.875 280.352 51.875C277.513 51.875 274.922 51.4062 272.578 50.4688C270.234 49.5312 268.216 48.2422 266.523 46.6016C264.857 44.9349 263.568 42.9427 262.656 40.625C261.771 38.3073 261.328 35.7292 261.328 32.8906C261.328 30.1302 261.771 27.5651 262.656 25.1953C263.568 22.7995 264.857 20.7682 266.523 19.1016C268.216 17.4089 270.234 16.0938 272.578 15.1562C274.922 14.1927 277.513 13.7109 280.352 13.7109C283.242 13.7109 285.859 14.1927 288.203 15.1562C290.547 16.0938 292.552 17.4089 294.219 19.1016C295.911 20.7682 297.201 22.7995 298.086 25.1953C298.997 27.5651 299.453 30.1302 299.453 32.8906ZM294.102 32.8906C294.102 30.8073 293.789 28.8932 293.164 27.1484C292.565 25.3776 291.667 23.8281 290.469 22.5C289.271 21.1719 287.812 20.1302 286.094 19.375C284.401 18.6198 282.487 18.2422 280.352 18.2422C278.216 18.2422 276.289 18.6198 274.57 19.375C272.878 20.1302 271.445 21.1719 270.273 22.5C269.102 23.8281 268.203 25.3776 267.578 27.1484C266.979 28.8932 266.68 30.8073 266.68 32.8906C266.68 34.974 266.979 36.901 267.578 38.6719C268.203 40.4167 269.102 41.9271 270.273 43.2031C271.445 44.4792 272.878 45.4818 274.57 46.2109C276.289 46.9401 278.216 47.3047 280.352 47.3047C282.487 47.3047 284.401 46.9401 286.094 46.2109C287.812 45.4818 289.271 44.4792 290.469 43.2031C291.667 41.9271 292.565 40.4167 293.164 38.6719C293.789 36.901 294.102 34.974 294.102 32.8906Z" fill="#020618"/>
</svg>
